# xmcd CD database file generated by OrangeCD 6.1
#
# Track frame offsets:
#	150
#	16887
#	32063
#	56915
#	74726
#	91467
#	108859
#	122726
#	147030
#	165654
#	183959
#	201047
#	219718
#	241298
#	268687
#	301611
#
# Disc length: 4315 seconds
#
# Revision: 0
# Processed by: cddbd v1.5.2PL0 Copyright (c) Steve Scherf et al.
# Submitted via: OrangeCD 6.1
#
DISCID=e110d910
DTITLE=Various Artist - Easy Rock Volume 1
DYEAR=2008
DGENRE=Dance Easy Rock
TTITLE0=Kool and The Gang - Celebration
TTITLE1=Al Green - Let's Stay Together
TTITLE2=Tina Turner - The Best
TTITLE3=Barry White - Can't Get Enough Of Your Love, Babe
TTITLE4=A Taste Of Honey - Boogie Oogie Oogie
TTITLE5=The Inner Circle - Sweat (A La La La La Long)
TTITLE6=UB40 - Red Red Wine
TTITLE7=Jimmy Cliff - Reggie Night
TTITLE8=Diana Ross - Upside Down
TTITLE9=Aretha Franklin With George Michael - I Knew You Were Waiting (For Me)
TTITLE10=The Reflections - Three Steps From The Truth
TTITLE11=Billy Ocean - Caribbean Queen
TTITLE12=Babyface and Des'ree - Fire
TTITLE13=Sade - Hang Onto Your Love
TTITLE14=Bonnie Pointer - Heaven Must Of Sent You
TTITLE15=Michael Jackson - Billie Jean
EXTD=
EXTT0=
EXTT1=
EXTT2=
EXTT3=
EXTT4=
EXTT5=
EXTT6=
EXTT7=
EXTT8=
EXTT9=
EXTT10=
EXTT11=
EXTT12=
EXTT13=
EXTT14=
EXTT15=
PLAYORDER=
